# xmcd CD database file
#
# Track frame offsets:
#	150
#	20670
#	44019
#	62745
#	78383
#	101176
#	126833
#
# Disc length: 2083 seconds
#
# Revision: 0
# Processed by: cddbd v1.5.2PL0 Copyright (c) Steve Scherf et al.
# Submitted via: CDex 1.70beta2
#
DISCID=60082107
DTITLE=Bill Evans - Eddie Gomez - Intuition
DYEAR=1900
DGENRE=Jazz
TTITLE0=Invitation
TTITLE1=Blue Serge
TTITLE2=Show-type Tune
TTITLE3=The Nature Of Things
TTITLE4=Are You All The Things
TTITLE5=Falling Grace
TTITLE6=Hi Lili, Hi Lo
EXTD=
EXTT0=
EXTT1=
EXTT2=
EXTT3=
EXTT4=
EXTT5=
EXTT6=
PLAYORDER=
